<?xml version="1.0" encoding="utf-8"?>
<!-- Generator: Adobe Illustrator 15.0.0, SVG Export Plug-In . SVG Version: 6.00 Build 0)  -->
<!DOCTYPE svg PUBLIC "-//W3C//DTD SVG 1.1//EN" "http://www.w3.org/Graphics/SVG/1.1/DTD/svg11.dtd" [
	<!ENTITY ns_extend "http://ns.adobe.com/Extensibility/1.0/">
	<!ENTITY ns_ai "http://ns.adobe.com/AdobeIllustrator/10.0/">
	<!ENTITY ns_graphs "http://ns.adobe.com/Graphs/1.0/">
	<!ENTITY ns_vars "http://ns.adobe.com/Variables/1.0/">
	<!ENTITY ns_imrep "http://ns.adobe.com/ImageReplacement/1.0/">
	<!ENTITY ns_sfw "http://ns.adobe.com/SaveForWeb/1.0/">
	<!ENTITY ns_custom "http://ns.adobe.com/GenericCustomNamespace/1.0/">
	<!ENTITY ns_adobe_xpath "http://ns.adobe.com/XPath/1.0/">
]>
<svg version="1.1" id="圖層_1" xmlns:x="&ns_extend;" xmlns:i="&ns_ai;" xmlns:graph="&ns_graphs;"
	 xmlns="http://www.w3.org/2000/svg" xmlns:xlink="http://www.w3.org/1999/xlink" x="0px" y="0px" width="30px" height="30px"
	 viewBox="0 0 30 30" enable-background="new 0 0 30 30" xml:space="preserve">
<metadata>
	<sfw  xmlns="&ns_sfw;">
		<slices></slices>
		<sliceSourceBounds  y="28.4" x="28.4" height="28.2" width="28.2" bottomLeftOrigin="true"></sliceSourceBounds>
	</sfw>
</metadata>
<g>
	<path fill="#FFFFFF" d="M15,29.1C7.2,29.1,0.9,22.8,0.9,15S7.2,0.9,15,0.9S29.1,7.2,29.1,15S22.8,29.1,15,29.1z M15,1.9
		C7.8,1.9,1.9,7.8,1.9,15S7.8,28.1,15,28.1S28.1,22.2,28.1,15S22.2,1.9,15,1.9z"/>
</g>
<g>
	<path fill="#FFFFFF" d="M21.1,19.4H8.9c-0.9,0-1.6-0.5-1.6-1.4V9.5c0-0.9,0.7-1.6,1.6-1.6H21c0.9,0,1.6,0.7,1.6,1.6v8.6
		C22.6,18.9,21.9,19.4,21.1,19.4z M8.9,8.9c-0.3,0-0.6,0.2-0.6,0.6v8.6c0,0.3,0.2,0.4,0.6,0.4H21c0.3,0,0.6-0.1,0.6-0.4V9.5
		c0-0.3-0.2-0.6-0.6-0.6H8.9z"/>
</g>
<g>
	<path fill="#FFFFFF" d="M22.8,21.7H7.2c-1.4,0-1.5-0.3-1.6-0.5c0,0-0.1-0.2,0-0.4c0-0.1,1.9-2.2,1.9-2.2c0.1-0.1-0.1-0.1,1.2-0.1
		h12.2c0.8,0,1.5-0.1,1.7,0.1c0,0,1.5,1.7,1.7,2c0.2,0.3,0.1,0.6,0.1,0.6C24.3,21.5,24,21.7,22.8,21.7z M6.9,20.7
		c0.1,0,15.9,0,15.9,0h0.1l-1-1.1c-0.1,0-0.2-0.2-1-0.2H8.8c-0.4,0-0.8,0-0.9,0.1L6.9,20.7z"/>
</g>
<g>
	<path fill="#FFFFFF" d="M20.8,17.2H9.2V9.8h11.5L20.8,17.2L20.8,17.2z M10,16.5h10v-5.9H10V16.5z"/>
</g>
</svg>
