<svg xmlns="http://www.w3.org/2000/svg" viewBox="0 0 283.367 84.879">
    <defs>
        <style>
            .cls-1{fill:#fff}.cls-2{fill:none}.cls-3{fill:#ffd200}
        </style>
    </defs>
    <g id="Group_257" data-name="Group 257" transform="translate(-107.457 -84)">
        <g id="Group_106" data-name="Group 106" transform="translate(107.503 83.889)">
            <path id="Path_232" d="M23.32 81.151L11.63 72.51a1.443 1.443 0 0 0-2.084.356A1.524 1.524 0 0 0 9.9 74.95l11.691 8.641a1.38 1.38 0 0 0 .864.3 1.516 1.516 0 0 0 1.22-.61 1.578 1.578 0 0 0-.355-2.13z" data-name="Path 232" transform="translate(-4.587 -35.452)"/>
            <path id="Path_233" d="M1.6 41.9l11.692 8.64a1.38 1.38 0 0 0 .864.3 1.478 1.478 0 0 0 .864-2.694L3.33 39.51a1.443 1.443 0 0 0-2.084.356A1.47 1.47 0 0 0 1.6 41.9z" data-name="Path 233" transform="translate(-.506 -19.226)"/>
            <path id="Path_234" d="M2.722 66.915l-.407-.3a1.443 1.443 0 0 0-2.084.356 1.478 1.478 0 0 0 .357 2.079l.407.3a1.38 1.38 0 0 0 .864.3 1.516 1.516 0 0 0 1.22-.61 1.587 1.587 0 0 0-.357-2.125z" data-name="Path 234" transform="translate(0 -32.551)"/>
            <path id="Path_235" d="M59.7 2.8l7.116 5.286a1.38 1.38 0 0 0 .864.3 1.478 1.478 0 0 0 .866-2.686L61.43.41a1.443 1.443 0 0 0-2.084.356A1.478 1.478 0 0 0 59.7 2.8z" data-name="Path 235" transform="translate(-29.074)"/>
            <path id="Path_236" d="M179.551 53.9a.865.865 0 0 0-.051.356c0-.102.051-.256.051-.356z" data-name="Path 236" transform="translate(-88.285 -26.449)"/>
            <path id="Path_237" d="M152.6 55.4a.264.264 0 0 1-.2.1c.051 0 .1-.051.2-.1z" data-name="Path 237" transform="translate(-74.959 -27.186)"/>
            <path id="Path_238" d="M121.838 89.362a3.609 3.609 0 0 0-2.238-.762 5.012 5.012 0 0 0-1.22.152 6.985 6.985 0 0 0-4.981 6.3 3.669 3.669 0 0 0 1.423 3.151 3.883 3.883 0 0 0 3.456.559 6.985 6.985 0 0 0 4.981-6.3 3.764 3.764 0 0 0-1.421-3.1zm-1.423 6a3.376 3.376 0 0 1-1.982 1.322 3.987 3.987 0 0 1-.712.1 2.088 2.088 0 0 1-1.322-.457 2.229 2.229 0 0 1-.864-1.881 3.472 3.472 0 0 1 .813-2.236 3.376 3.376 0 0 1 1.982-1.322 2.221 2.221 0 0 1 2.9 2.186 3.6 3.6 0 0 1-.816 2.286z" class="cls-1" data-name="Path 238" transform="translate(-55.783 -43.511)"/>
            <path id="Path_239" d="M122.429 93.369a2.318 2.318 0 0 0-2.033-.356 3.925 3.925 0 0 0-1.982 1.322 3.573 3.573 0 0 0-.813 2.236 2.3 2.3 0 0 0 .864 1.881 2.088 2.088 0 0 0 1.322.457 3.987 3.987 0 0 0 .712-.1 3.925 3.925 0 0 0 1.982-1.322 3.573 3.573 0 0 0 .813-2.236 2.162 2.162 0 0 0-.865-1.882z" data-name="Path 239" transform="translate(-57.848 -45.637)"/>
            <path id="Path_240" d="M121.441 95.542a8.956 8.956 0 0 0 2.033-5.49 5.241 5.241 0 0 0-2.033-4.473 5.4 5.4 0 0 0-4.88-.813 8.61 8.61 0 0 0-4.829 3.3 8.956 8.956 0 0 0-2.033 5.49 5.241 5.241 0 0 0 2.033 4.473 5.026 5.026 0 0 0 3.151 1.067 5.279 5.279 0 0 0 1.728-.254 9.145 9.145 0 0 0 4.83-3.3zm-4.93 1.271a3.883 3.883 0 0 1-3.456-.559 3.669 3.669 0 0 1-1.423-3.151 6.261 6.261 0 0 1 1.474-3.914 6.537 6.537 0 0 1 3.507-2.389 5.013 5.013 0 0 1 1.22-.152 3.609 3.609 0 0 1 2.236.762 3.669 3.669 0 0 1 1.423 3.151 6.261 6.261 0 0 1-1.474 3.914 6.181 6.181 0 0 1-3.507 2.338z" data-name="Path 240" transform="translate(-53.963 -41.507)"/>
            <path id="Path_241" d="M142.145 102.915a1.117 1.117 0 0 0-.915-.1 1.865 1.865 0 0 0-.864.508 1.19 1.19 0 0 0-.356.864v1.728a2.036 2.036 0 0 1-.559 1.322 2.782 2.782 0 0 1-1.423.864 1.56 1.56 0 0 1-1.372-.152 1.09 1.09 0 0 1-.559-.966v-4.219a.811.811 0 0 0-.407-.712 1.117 1.117 0 0 0-.915-.1 1.865 1.865 0 0 0-.864.508 1.19 1.19 0 0 0-.356.864v4.219a2.036 2.036 0 0 1-.559 1.322 2.782 2.782 0 0 1-1.423.864 1.56 1.56 0 0 1-1.372-.152 1.09 1.09 0 0 1-.559-.966v-1.071a.811.811 0 0 0-.407-.712 1.117 1.117 0 0 0-.915-.1 2.159 2.159 0 0 0-.864.508 1.19 1.19 0 0 0-.356.864v1.118a2.692 2.692 0 0 0 1.372 2.44 3.371 3.371 0 0 0 1.881.508 6.209 6.209 0 0 0 1.322-.152 5.744 5.744 0 0 0 3.253-1.982 3.784 3.784 0 0 0 3.253.3 6.218 6.218 0 0 0 3.151-1.931 4.562 4.562 0 0 0 1.322-3.05v-1.728a1.237 1.237 0 0 0-.509-.708zm.051 2.44a4.292 4.292 0 0 1-1.22 2.846 5.959 5.959 0 0 1-3 1.83c-1.372.356-2.44.254-3.1-.356l-.152-.1-.1.152a5.474 5.474 0 0 1-3.151 1.982 3.607 3.607 0 0 1-2.948-.3 2.282 2.282 0 0 1-1.22-2.135v-1.124a.879.879 0 0 1 .3-.61 1.259 1.259 0 0 1 .712-.407 2.2 2.2 0 0 0 .254-.051.735.735 0 0 1 .356.1.534.534 0 0 1 .254.457v1.118a1.392 1.392 0 0 0 .712 1.271 2.2 2.2 0 0 0 1.627.152 2.856 2.856 0 0 0 1.576-.966 2.28 2.28 0 0 0 .661-1.576v-4.219a.879.879 0 0 1 .3-.61 1.259 1.259 0 0 1 .712-.407.966.966 0 0 1 .661.051.534.534 0 0 1 .254.457v4.219a1.392 1.392 0 0 0 .712 1.271 2.2 2.2 0 0 0 1.626.152 3.571 3.571 0 0 0 1.627-.966 2.28 2.28 0 0 0 .661-1.576v-1.728a.879.879 0 0 1 .3-.61 1.259 1.259 0 0 1 .712-.407.966.966 0 0 1 .661.051.534.534 0 0 1 .254.457v1.576z" data-name="Path 241" transform="translate(-62.519 -50.049)"/>
            <path id="Path_242" d="M142.09 103.461a.937.937 0 0 0-.661-.051 1.259 1.259 0 0 0-.712.407.879.879 0 0 0-.3.61v1.728a2.28 2.28 0 0 1-.661 1.576 3.327 3.327 0 0 1-1.627.966 2.2 2.2 0 0 1-1.627-.153 1.449 1.449 0 0 1-.712-1.271v-4.219a.534.534 0 0 0-.254-.457.729.729 0 0 0-.661-.051 1.259 1.259 0 0 0-.712.407.879.879 0 0 0-.3.61v4.219a2.28 2.28 0 0 1-.661 1.576 3.415 3.415 0 0 1-1.576.966 2.2 2.2 0 0 1-1.627-.152 1.392 1.392 0 0 1-.712-1.271v-1.067a.534.534 0 0 0-.254-.457.942.942 0 0 0-.356-.1.458.458 0 0 0-.254.051 1.259 1.259 0 0 0-.712.407.879.879 0 0 0-.3.61v1.118a2.282 2.282 0 0 0 1.22 2.135 4.054 4.054 0 0 0 2.948.3 5.474 5.474 0 0 0 3.151-1.982l.1-.152.152.1c.661.61 1.728.712 3.1.356a5.959 5.959 0 0 0 3-1.83 4.292 4.292 0 0 0 1.22-2.846v-1.728c.042-.101-.009-.253-.212-.355z" data-name="Path 242" transform="translate(-62.666 -50.341)"/>
            <path id="Path_243" d="M156.738 78.862a3.609 3.609 0 0 0-2.238-.762 5.013 5.013 0 0 0-1.22.152 6.985 6.985 0 0 0-4.981 6.3 3.669 3.669 0 0 0 1.423 3.151 3.883 3.883 0 0 0 3.456.559 6.985 6.985 0 0 0 4.981-6.3 3.636 3.636 0 0 0-1.421-3.1zm-1.423 5.947a3.376 3.376 0 0 1-1.982 1.322 3.987 3.987 0 0 1-.712.1 2.088 2.088 0 0 1-1.322-.457 2.2 2.2 0 0 1-.864-1.83 3.472 3.472 0 0 1 .813-2.236 3.376 3.376 0 0 1 1.982-1.322 2.2 2.2 0 0 1 2.033.356 2.229 2.229 0 0 1 .864 1.881 3.342 3.342 0 0 1-.813 2.186z" class="cls-1" data-name="Path 243" transform="translate(-72.943 -38.348)"/>
            <path id="Path_244" d="M157.329 82.869a2.318 2.318 0 0 0-2.033-.356 3.925 3.925 0 0 0-1.982 1.322 3.573 3.573 0 0 0-.813 2.236 2.133 2.133 0 0 0 .864 1.83 2.088 2.088 0 0 0 1.322.457 3.987 3.987 0 0 0 .712-.1 3.925 3.925 0 0 0 1.982-1.322 3.573 3.573 0 0 0 .813-2.236 2.133 2.133 0 0 0-.865-1.831z" data-name="Path 244" transform="translate(-75.008 -40.474)"/>
            <path id="Path_245" d="M156.341 75.08a5.4 5.4 0 0 0-4.88-.813 8.61 8.61 0 0 0-4.829 3.3 8.956 8.956 0 0 0-2.033 5.49 5.241 5.241 0 0 0 2.033 4.473 5.026 5.026 0 0 0 3.151 1.067 7.109 7.109 0 0 0 1.728-.254 8.61 8.61 0 0 0 4.829-3.3 8.956 8.956 0 0 0 2.033-5.49 5.376 5.376 0 0 0-2.032-4.473zm-1.423 8.844a6.537 6.537 0 0 1-3.507 2.389 3.883 3.883 0 0 1-3.456-.559 3.669 3.669 0 0 1-1.423-3.151 6.261 6.261 0 0 1 1.474-3.914 6.537 6.537 0 0 1 3.507-2.389 5.013 5.013 0 0 1 1.22-.152 3.609 3.609 0 0 1 2.236.762 3.669 3.669 0 0 1 1.423 3.151 6.552 6.552 0 0 1-1.474 3.863z" data-name="Path 245" transform="translate(-71.124 -36.344)"/>
            <path id="Path_246" d="M179.9 52.659a1.758 1.758 0 0 1 .508-.559 2.664 2.664 0 0 0-.508.559z" class="cls-2" data-name="Path 246" transform="translate(-88.481 -25.564)"/>
            <path id="Path_247" d="M105.477 66.057a11.682 11.682 0 0 0-3.2-4.422V30.02a1.485 1.485 0 0 0-1.22-1.474h-.557a.187.187 0 0 0-.152.051c-.051 0-.051 0-.1.051-.051 0-.051.051-.1.051s-.051.051-.1.051a.05.05 0 0 0-.051.051 1.813 1.813 0 0 0-.508.559v.051a.722.722 0 0 0-.1.3v.051a.865.865 0 0 0-.051.356v19.928l-3.761 1.322a.915.915 0 0 0 .3 1.779.645.645 0 0 0 .3-.051l3.151-1.118v2.643l-3.761 1.322a.915.915 0 0 0 .3 1.779.645.645 0 0 0 .3-.051l3.151-1.118v5.9a1.516 1.516 0 0 0 .61 1.22 8.38 8.38 0 0 1 2.8 3.507 2.454 2.454 0 0 1-.051 1.83c-.356.356-.813.813-2.694-.661l-3.3-2.643a2.662 2.662 0 0 0-2.745-.407L64.662 75.562a1.531 1.531 0 0 0-.915 1.932 1.459 1.459 0 0 0 1.067.966 8.986 8.986 0 0 1 2.745 3.507c.2.559.254 1.627-.051 1.881-.661.661-1.677.407-3.1-.661-.051-.051-.051-.051-.1-.051l-6-3.812v-8.9l4.32-1.474a.967.967 0 0 0 .61-1.22.933.933 0 0 0-1.169-.61l-3.71 1.28v-2.6l4.32-1.474a.967.967 0 0 0 .61-1.22.933.933 0 0 0-1.169-.61l-3.71 1.274V43.9a1.519 1.519 0 0 0-1.474-1.525 1.487 1.487 0 0 0-1.474 1.525v33.391l-18.6-12.453a8.987 8.987 0 0 1-3.965-7.472l.051-33.75a2.107 2.107 0 0 1 .152-.816 2.588 2.588 0 0 1 1.627-1.627l4.673-1.421 10.471-3.2 12.351 7.929-6.252 12.35-18.756-13.622a1.485 1.485 0 0 0-2.084.356 1.524 1.524 0 0 0 .356 2.084l20.128 14.587a1.38 1.38 0 0 0 .864.3 1.438 1.438 0 0 0 1.22-.661c.051-.1.1-.152.152-.254.051-.051.1-.152.152-.2l7.116-14.13a1.016 1.016 0 0 1 .813-.559 1.087 1.087 0 0 1 .915.407l6.554 8.54a1.46 1.46 0 0 0 1.525.508l.2 7.523 1.83-2.948 1.83 1.423 1.576-2.541 1.329 1.576 1.474-2.592 1.423 1.322-.051-7.065.61-.2h.1c.051 0 .1-.051.152-.1a.385.385 0 0 1 .2-.1l.152-.152.051-.051c.051-.051.1-.1.1-.152s.051-.051.051-.1a.177.177 0 0 1 .051-.1c.051-.1.051-.152.1-.254l6.1-12.555a1.168 1.168 0 0 1 .915-.61.981.981 0 0 1 .915.559l4.735 8.63a.893.893 0 0 0 .2.254 1.642 1.642 0 0 0 .864.508 1.623 1.623 0 0 0 .966-.152l.051-.051a1.529 1.529 0 0 0 .508-1.982l-4.727-8.641a3.928 3.928 0 0 0-3.609-2.084 4.058 4.058 0 0 0-3.507 2.287l-.661 1.423-13.771-8.946a6.816 6.816 0 0 0-5.693-.816L36.35 17.516l-2.491.762a5.759 5.759 0 0 0-2.033 1.169l-9.759-7.217a8.24 8.24 0 0 1-2.643-2.948 2.062 2.062 0 0 1 0-1.372c.61-.61 1.627 0 2.389.61l9 6.913a1.475 1.475 0 0 0 2.084-.3v-.051a1.574 1.574 0 0 0-.3-2.084l-9-6.913c-3.355-2.592-5.49-1.118-6.252-.356-1.377 1.371-1.021 3.603-.716 4.571.661 1.83 2.592 3.507 3.711 4.371l9.912 7.319A5.728 5.728 0 0 0 30 23.615l-.051 33.75a12.026 12.026 0 0 0 5.286 10.013L55.97 81.255c.051 0 .051.051.1.051s.051.051.1.051l6.608 4.219A6.67 6.67 0 0 0 66.8 87.2a4.209 4.209 0 0 0 2.948-1.22c1.525-1.525 1.169-4.015.762-5.134a10.167 10.167 0 0 0-2.186-3.406l26.685-9.353 3.2 2.592h.051a6.66 6.66 0 0 0 3.812 1.627 3.725 3.725 0 0 0 2.745-1.22c1.423-1.471 1.067-3.91.66-5.029zm-35.071-55.81a3.863 3.863 0 0 1 3.253.457l13.775 8.946.3.152-3.711 7.675-22.767-14.434z" data-name="Path 247" transform="translate(-8.061 -2.213)"/>
            <g id="Group_84" data-name="Group 84" transform="translate(11.198 5.415)">
                <path id="Path_249" d="M39.166 20.435c-1.118-.813-2.287-1.627-3.456-2.491v.051a1.475 1.475 0 0 1-2.084.3l-9.048-6.913c-.762-.61-1.83-1.169-2.389-.61a2.062 2.062 0 0 0 0 1.372 8.24 8.24 0 0 0 2.643 2.956l9.759 7.218a5.759 5.759 0 0 1 2.033-1.169z" class="cls-3" data-name="Path 249" transform="translate(-22.075 -10.547)"/>
                <path id="Path_250" d="M118.739 78.427a8.38 8.38 0 0 0-2.8-3.507 1.592 1.592 0 0 1-.61-1.22v-5.9l-3.151 1.118a.645.645 0 0 1-.3.051.99.99 0 0 1-.864-.61.972.972 0 0 1 .559-1.169l3.761-1.322v-2.639l-3.151 1.118a.645.645 0 0 1-.3.051.99.99 0 0 1-.864-.61.972.972 0 0 1 .559-1.169l3.761-1.322V41.373a.754.754 0 0 1 .051-.356v-.051c.051-.1.051-.2.1-.3v-.051a1.759 1.759 0 0 1 .508-.559l.051-.051c.051 0 .051-.051.1-.051s.051-.051.1-.051.051 0 .1-.051a.187.187 0 0 0 .152-.051h.559v-2.342l-.051.051a1.623 1.623 0 0 1-.966.152 1.409 1.409 0 0 1-.864-.508c-.051-.1-.152-.152-.2-.254l-4.727-8.641a1.026 1.026 0 0 0-.915-.559.96.96 0 0 0-.915.61l-6.1 12.555c0 .1-.051.152-.1.254a.177.177 0 0 1-.051.1c0 .051-.051.051-.051.1-.051.051-.1.1-.1.152l-.051.051-.152.152a.385.385 0 0 1-.2.1c-.051.051-.1.051-.152.1h-.1l-.61.2.051 7.065-1.423-1.322-1.483 2.604-1.322-1.576L95 51.386l-1.83-1.423-1.83 2.948-.2-7.523a1.46 1.46 0 0 1-1.525-.508l-6.557-8.539a1.087 1.087 0 0 0-.915-.407.956.956 0 0 0-.813.559l-7.116 14.13a.7.7 0 0 1-.152.2 1.111 1.111 0 0 1-.152.254 1.516 1.516 0 0 1-1.22.61 1.38 1.38 0 0 1-.864-.3L51.543 37a1.532 1.532 0 0 1-.356-2.084 1.478 1.478 0 0 1 2.084-.356l18.705 13.624 6.2-12.3-12.3-7.98-10.471 3.2-4.675 1.425a2.478 2.478 0 0 0-1.63 1.626 2.3 2.3 0 0 0-.152.813L48.9 68.719a8.987 8.987 0 0 0 3.965 7.472l18.6 12.453V55.249a1.519 1.519 0 0 1 1.474-1.525 1.487 1.487 0 0 1 1.474 1.525v19.925l3.714-1.274a.913.913 0 0 1 1.169.61.989.989 0 0 1-.61 1.22l-4.32 1.474V79.7l3.711-1.271a.913.913 0 0 1 1.169.61.989.989 0 0 1-.61 1.22l-4.32 1.474v8.9l6 3.812c.051 0 .051.051.1.051 1.423 1.067 2.44 1.322 3.1.661a2.57 2.57 0 0 0 .051-1.881 8.986 8.986 0 0 0-2.745-3.507 1.38 1.38 0 0 1-1.067-.966 1.553 1.553 0 0 1 .915-1.932L109.945 76.6a2.567 2.567 0 0 1 2.745.4l3.3 2.643c1.932 1.474 2.338 1.017 2.694.661a2.57 2.57 0 0 0 .055-1.877zm-33.75-7.319a5.026 5.026 0 0 1-3.151-1.067 5.376 5.376 0 0 1-2.038-4.474 8.658 8.658 0 0 1 2.033-5.49 9.145 9.145 0 0 1 4.829-3.3 5.586 5.586 0 0 1 4.88.813 5.375 5.375 0 0 1 2.033 4.473 8.658 8.658 0 0 1-2.033 5.49 8.869 8.869 0 0 1-4.829 3.3 5.279 5.279 0 0 1-1.725.255zm19.111-2.237a4.562 4.562 0 0 1-1.322 3.05 6.218 6.218 0 0 1-3.151 1.931 3.784 3.784 0 0 1-3.253-.3 5.744 5.744 0 0 1-3.253 1.982 6.21 6.21 0 0 1-1.322.152 3.371 3.371 0 0 1-1.881-.508 2.692 2.692 0 0 1-1.372-2.44v-1.122a1.19 1.19 0 0 1 .356-.864 1.52 1.52 0 0 1 .864-.508 1.117 1.117 0 0 1 .915.1.811.811 0 0 1 .407.712v1.118a.956.956 0 0 0 .559.966 2.039 2.039 0 0 0 1.372.152 3.173 3.173 0 0 0 1.423-.864 1.809 1.809 0 0 0 .558-1.32v-4.219a1.19 1.19 0 0 1 .356-.864 1.519 1.519 0 0 1 .864-.508 1.117 1.117 0 0 1 .915.1.811.811 0 0 1 .407.712v4.219a.956.956 0 0 0 .559.966 2.039 2.039 0 0 0 1.372.152 2.923 2.923 0 0 0 1.427-.866 1.809 1.809 0 0 0 .559-1.322v-1.725a1.19 1.19 0 0 1 .356-.864 1.373 1.373 0 0 1 .864-.508 1.117 1.117 0 0 1 .915.1.811.811 0 0 1 .407.712v1.677zm5.185-6.659a9.145 9.145 0 0 1-4.829 3.3 7.109 7.109 0 0 1-1.728.254 5.026 5.026 0 0 1-3.152-1.066 5.375 5.375 0 0 1-2.033-4.473 8.658 8.658 0 0 1 2.033-5.49 8.869 8.869 0 0 1 4.829-3.3 5.586 5.586 0 0 1 4.88.813 5.376 5.376 0 0 1 2.033 4.473 8.74 8.74 0 0 1-2.033 5.49z" class="cls-3" data-name="Path 250" transform="translate(-35.265 -18.981)"/>
                <path id="Path_251" d="M131.082 25.086l-.3-.152L117 15.988a3.863 3.863 0 0 0-3.253-.457l-9.149 2.8 22.771 14.435z" class="cls-3" data-name="Path 251" transform="translate(-62.653 -12.911)"/>
            </g>
        </g>
        <g id="Group_107" data-name="Group 107" transform="translate(216.717 102)">
            <path id="Path_252" d="M0 57.992c4.735-8.07 29.7-48.745 29.915-49.176l.108-.215-8.716.43C25.18 6.664 32.82.746 33.681.1l6.672 2.583L44.98 28.4 56.924 7.525l-7.963 2.044 11.084-6.564 4.842 3.443c-.108.215-.538.861-1.722 3.013C59.506 16.133 50.79 31.629 50.252 32.6l-10.545 5.808-3.228-19.8-2.152-.753-17.54 28.3L26.9 42.712z" data-name="Path 252" transform="translate(0 .008)"/>
            <path id="Path_253" d="M49.579 48.907a523.577 523.577 0 0 0-6.779-3.443C44.091 43.2 54.529 25.018 55.067 24.05l9.039-4.95 9.147 4.089c-8.716 15.388-10.007 17.54-10.115 17.863-.754.538-12.268 7.102-13.559 7.855zm10.868-22.813l-8.931 16.141 2.475 1.184h.109c.108 0 .108 0 1.614-2.8.968-1.614 2.152-3.874 3.443-6.134 2.475-4.412 5.058-8.824 5.058-8.824v-.108L63.03 24.7z" data-name="Path 253" transform="translate(3.256 1.453)"/>
            <path id="Path_254" d="M101.9 37.1l10.223-18.078 7.748-5.058 8.931 4.412-7.1 13.881v.108l2.26 1.4 3.228-1.614 7.64-14.957-2.045-1.506 2.583-1.722 7.855-1.184c-1.076 2.26-8.716 17.54-8.824 17.755v.108l1.937 1.291 3.013-1.184 8.178-16.033-2.69-2.152 4.089-.646L150 9.773c.43-.323 5.38-3.551 7.963-5.273h1.184l-3.228 6.241 9.792-1.4.646.323-11.622 3.981-8.178 15.28 14.2-2.8.538.43c-2.475 1.184-16.894 7.748-18.293 8.5l-4.412-2.26h-.108c-6.672 3.228-8.178 3.981-8.5 4.2l-3.874-1.937-7.21 3.551-3.44-1.609h-.108c-.215.108-6.026 2.8-6.887 3.336zm15.173-15.926l-7.855 13.774 2.583 1.076h.108l.43-.753.968-1.722c.861-1.506 1.937-3.443 3.013-5.38l4.412-7.855-1.184-.753z" data-name="Path 254" transform="translate(7.751 .342)"/>
            <path id="Path_255" d="M66.2 42.1l13.128-22.813-6.028 1.291 10.223-6.026 1.829.861 2.69 1.184L75.777 37.9l3.228 1.614 10.438-17.429 4.2-2.152 2.045 1.937-6.46 11.406L92.779 35l10.653-19.154-.215-.215-4.3 1.291 7.743-4.522 5.488 2.26-15.5 27.117-5.268-2.368-17.97 6.241z" data-name="Path 255" transform="translate(5.036 .943)"/>
            <path id="Path_256" d="M135.5 9.9c2.152-3.013 3.443-4.95 2.583-5.7a2.532 2.532 0 0 1-.215-.861c-.108-.538-.323-1.076-.43-1.614v-.111a.833.833 0 0 0 .323-.108c2.905-.43 5.918-.861 9.685-1.506h.323a2.369 2.369 0 0 0 .108.861 2.979 2.979 0 0 0 .108.968.333.333 0 0 1-.108.215c-.43.323-1.937 1.184-3.443 2.152s-2.905 1.829-3.336 2.045c-.861.646-1.722 1.184-2.583 1.829h-.108a12.18 12.18 0 0 0-1.4 1.076l-.323.215c-.43.323-.753.538-1.184.861-.1-.215 0-.215 0-.322z" data-name="Path 256" transform="translate(10.304)"/>
        </g>
    </g>
</svg>
