<?xml version="1.0" encoding="utf-8"?>
<!-- Generator: Adobe Illustrator 15.0.0, SVG Export Plug-In . SVG Version: 6.00 Build 0)  -->
<!DOCTYPE svg PUBLIC "-//W3C//DTD SVG 1.1//EN" "http://www.w3.org/Graphics/SVG/1.1/DTD/svg11.dtd" [
	<!ENTITY ns_extend "http://ns.adobe.com/Extensibility/1.0/">
	<!ENTITY ns_ai "http://ns.adobe.com/AdobeIllustrator/10.0/">
	<!ENTITY ns_graphs "http://ns.adobe.com/Graphs/1.0/">
	<!ENTITY ns_vars "http://ns.adobe.com/Variables/1.0/">
	<!ENTITY ns_imrep "http://ns.adobe.com/ImageReplacement/1.0/">
	<!ENTITY ns_sfw "http://ns.adobe.com/SaveForWeb/1.0/">
	<!ENTITY ns_custom "http://ns.adobe.com/GenericCustomNamespace/1.0/">
	<!ENTITY ns_adobe_xpath "http://ns.adobe.com/XPath/1.0/">
]>
<svg version="1.1" id="圖層_1" xmlns:x="&ns_extend;" xmlns:i="&ns_ai;" xmlns:graph="&ns_graphs;"
	 xmlns="http://www.w3.org/2000/svg" xmlns:xlink="http://www.w3.org/1999/xlink" x="0px" y="0px" width="30px" height="30px"
	 viewBox="0 0 30 30" enable-background="new 0 0 30 30" xml:space="preserve">
<metadata>
	<sfw  xmlns="&ns_sfw;">
		<slices></slices>
		<sliceSourceBounds  y="34.796" x="35.176" width="14.649" height="15.408" bottomLeftOrigin="true"></sliceSourceBounds>
	</sfw>
</metadata>
<g>
	<g>
		<path fill="#FFFFFF" d="M14.085,20.114c-3.534,0-6.409-2.875-6.409-6.409s2.875-6.409,6.409-6.409
			c3.533,0,6.409,2.875,6.409,6.409S17.618,20.114,14.085,20.114z M14.085,8.852c-2.677,0-4.854,2.177-4.854,4.854
			c0,2.677,2.177,4.854,4.854,4.854c2.676,0,4.854-2.178,4.854-4.854C18.938,11.029,16.761,8.852,14.085,8.852z"/>
	</g>
	<g>
		<path fill="#FFFFFF" d="M21.547,22.704c-0.216,0-0.429-0.089-0.581-0.264l-3.562-3.852c-0.284-0.32-0.256-0.812,0.066-1.1
			c0.321-0.282,0.812-0.254,1.098,0.068l3.562,3.853c0.285,0.321,0.255,0.813-0.067,1.099C21.914,22.64,21.729,22.704,21.547,22.704
			z"/>
	</g>
</g>
</svg>
