<?xml version="1.0" encoding="utf-8"?>
<!-- Generator: Adobe Illustrator 15.0.0, SVG Export Plug-In . SVG Version: 6.00 Build 0)  -->
<!DOCTYPE svg PUBLIC "-//W3C//DTD SVG 1.1//EN" "http://www.w3.org/Graphics/SVG/1.1/DTD/svg11.dtd" [
	<!ENTITY ns_extend "http://ns.adobe.com/Extensibility/1.0/">
	<!ENTITY ns_ai "http://ns.adobe.com/AdobeIllustrator/10.0/">
	<!ENTITY ns_graphs "http://ns.adobe.com/Graphs/1.0/">
	<!ENTITY ns_vars "http://ns.adobe.com/Variables/1.0/">
	<!ENTITY ns_imrep "http://ns.adobe.com/ImageReplacement/1.0/">
	<!ENTITY ns_sfw "http://ns.adobe.com/SaveForWeb/1.0/">
	<!ENTITY ns_custom "http://ns.adobe.com/GenericCustomNamespace/1.0/">
	<!ENTITY ns_adobe_xpath "http://ns.adobe.com/XPath/1.0/">
]>
<svg version="1.1" id="圖層_1" xmlns:x="&ns_extend;" xmlns:i="&ns_ai;" xmlns:graph="&ns_graphs;"
	 xmlns="http://www.w3.org/2000/svg" xmlns:xlink="http://www.w3.org/1999/xlink" x="0px" y="0px" width="30px" height="30px"
	 viewBox="0 0 30 30" enable-background="new 0 0 30 30" xml:space="preserve">
<metadata>
	<sfw  xmlns="&ns_sfw;">
		<slices></slices>
		<sliceSourceBounds  y="28.4" x="28.4" height="28.2" width="28.2" bottomLeftOrigin="true"></sliceSourceBounds>
	</sfw>
</metadata>
<g>
	<path fill="#FFFFFF" d="M19.9,21.7"/>
</g>
<g>
	<path fill="#FFFFFF" d="M21.5,22.2h-13c-1,0-1.8-0.8-1.8-1.8v-9.9c0-1,0.8-1.8,1.8-1.8h13c1,0,1.8,0.8,1.8,1.8v9.9
		C23.3,21.4,22.5,22.2,21.5,22.2z M8.5,9.7c-0.4,0-0.8,0.4-0.8,0.8v9.9c0,0.4,0.4,0.8,0.8,0.8h13c0.4,0,0.8-0.4,0.8-0.8v-9.9
		c0-0.4-0.4-0.8-0.8-0.8H8.5z"/>
</g>
<g>
	<path fill="#FFFFFF" d="M21.2,19.5H8.8v-7.8h12.4V19.5z M9.6,18.7h10.9v-6.3H9.6V18.7z"/>
</g>
<g>
	<path fill="#FFFFFF" d="M14.8,9.6l-2.5-2.4c-0.2-0.2-0.2-0.5,0-0.7c0.2-0.2,0.5-0.2,0.7,0l2.1,2l1.9-2c0.2-0.2,0.5-0.2,0.7,0
		s0.2,0.5,0,0.7l-2.2,2.4H14.8z"/>
</g>
<g>
	<g>
		<path fill="#FFFFFF" d="M9,23.6c-0.1,0-0.2,0-0.3-0.1c-0.2-0.2-0.3-0.5-0.1-0.7l1.1-1.5c0.2-0.2,0.5-0.3,0.7-0.1
			c0.2,0.2,0.3,0.5,0.1,0.7l-1.1,1.5C9.3,23.6,9.2,23.6,9,23.6z"/>
	</g>
	<g>
		<path fill="#FFFFFF" d="M21,23.6c-0.1,0-0.2,0-0.3-0.1L19.1,22c-0.2-0.2-0.2-0.5,0-0.7c0.2-0.2,0.5-0.2,0.7,0l1.6,1.5
			c0.2,0.2,0.2,0.5,0,0.7C21.3,23.6,21.1,23.6,21,23.6z"/>
	</g>
</g>
<g>
	<path fill="#FFFFFF" d="M15,29.1C7.2,29.1,0.9,22.8,0.9,15S7.2,0.9,15,0.9S29.1,7.2,29.1,15S22.8,29.1,15,29.1z M15,1.9
		C7.8,1.9,1.9,7.8,1.9,15S7.8,28.1,15,28.1S28.1,22.2,28.1,15S22.2,1.9,15,1.9z"/>
</g>
</svg>
