<?xml version="1.0" encoding="utf-8"?>
<!-- Generator: Adobe Illustrator 16.0.0, SVG Export Plug-In . SVG Version: 6.00 Build 0)  -->
<!DOCTYPE svg PUBLIC "-//W3C//DTD SVG 1.1//EN" "http://www.w3.org/Graphics/SVG/1.1/DTD/svg11.dtd">
<svg version="1.1" id="圖層_1" xmlns="http://www.w3.org/2000/svg" xmlns:xlink="http://www.w3.org/1999/xlink" x="0px" y="0px"
	 width="30px" height="30px" viewBox="0 0 30 30" enable-background="new 0 0 30 30" xml:space="preserve">
<g>
	<g>
		<g>
			<path fill="#FFFFFF" d="M15,29.083C7.234,29.083,0.917,22.766,0.917,15S7.234,0.917,15,0.917S29.083,7.234,29.083,15
				S22.766,29.083,15,29.083z M15,1.917C7.786,1.917,1.917,7.786,1.917,15S7.786,28.083,15,28.083S28.083,22.214,28.083,15
				S22.214,1.917,15,1.917z"/>
		</g>
	</g>
	<path fill="#FFFFFF" d="M15.558,14.421c0,0.388-0.314,0.701-0.701,0.701h-2.523v1.259l-1.928-1.259H7.604
		c-0.388,0-0.701-0.313-0.701-0.701V7.354c0-0.388,0.313-0.701,0.701-0.701h7.252c0.387,0,0.701,0.313,0.701,0.701V14.421z"/>
	<path fill="#FFFFFF" d="M15.483,22.709c0,0.282-0.229,0.511-0.511,0.511h-5.28c-0.282,0-0.51-0.229-0.51-0.511v-5.146
		c0-0.281,0.228-0.51,0.51-0.51h5.28c0.281,0,0.511,0.229,0.511,0.51V22.709z"/>
	<path fill="#FFFFFF" d="M23.097,16.543c0,0.282-0.229,0.511-0.51,0.511h-5.28c-0.282,0-0.511-0.229-0.511-0.511v-5.146
		c0-0.281,0.229-0.511,0.511-0.511h5.28c0.281,0,0.51,0.229,0.51,0.511V16.543z"/>
	<path fill="#FFFFFF" d="M21.275,22.091c0,0.201-0.163,0.363-0.362,0.363h-3.754c-0.2,0-0.363-0.162-0.363-0.363v-1.077v-0.752
		v-0.891v-0.938c0-0.198,0.163-0.362,0.363-0.362h3.754c0.199,0,0.362,0.164,0.362,0.362V22.091z"/>
</g>
</svg>
