<?xml version="1.0" encoding="utf-8"?>
<!-- Generator: Adobe Illustrator 15.0.0, SVG Export Plug-In . SVG Version: 6.00 Build 0)  -->
<!DOCTYPE svg PUBLIC "-//W3C//DTD SVG 1.1//EN" "http://www.w3.org/Graphics/SVG/1.1/DTD/svg11.dtd" [
	<!ENTITY ns_extend "http://ns.adobe.com/Extensibility/1.0/">
	<!ENTITY ns_ai "http://ns.adobe.com/AdobeIllustrator/10.0/">
	<!ENTITY ns_graphs "http://ns.adobe.com/Graphs/1.0/">
	<!ENTITY ns_vars "http://ns.adobe.com/Variables/1.0/">
	<!ENTITY ns_imrep "http://ns.adobe.com/ImageReplacement/1.0/">
	<!ENTITY ns_sfw "http://ns.adobe.com/SaveForWeb/1.0/">
	<!ENTITY ns_custom "http://ns.adobe.com/GenericCustomNamespace/1.0/">
	<!ENTITY ns_adobe_xpath "http://ns.adobe.com/XPath/1.0/">
]>
<svg version="1.1" id="圖層_1" xmlns:x="&ns_extend;" xmlns:i="&ns_ai;" xmlns:graph="&ns_graphs;"
	 xmlns="http://www.w3.org/2000/svg" xmlns:xlink="http://www.w3.org/1999/xlink" x="0px" y="0px" width="30px" height="30px"
	 viewBox="0 0 30 30" enable-background="new 0 0 30 30" xml:space="preserve">
<metadata>
	<sfw  xmlns="&ns_sfw;">
		<slices></slices>
		<sliceSourceBounds  y="32.4" x="36.5" width="12.1" height="20.3" bottomLeftOrigin="true"></sliceSourceBounds>
	</sfw>
</metadata>
<g>
	<path fill="#666666" d="M19.4,25.1h-8.7c-0.9,0-1.7-0.898-1.7-2V6.8c0-1.1,0.7-2,1.7-2h8.7c0.898,0,1.699,0.9,1.699,2v16.4
		C21.1,24.3,20.4,25.1,19.4,25.1z M10.8,5.9c-0.4,0-0.7,0.4-0.7,1v16.4c0,0.5,0.3,1,0.7,1h8.7c0.4,0,0.7-0.399,0.7-1V6.8
		c0-0.5-0.3-1-0.7-1h-8.7V5.9z"/>
</g>
<g>
	<circle fill="#666666" cx="15.1" cy="22.9" r="0.7"/>
</g>
<g>
	<path fill="#666666" d="M18.7,21.1h-7.2c-0.2,0-0.4-0.199-0.4-0.398V9.2c0-0.2,0.2-0.4,0.4-0.4h7.2C18.9,8.8,19.1,9,19.1,9.2v11.5
		C19.1,20.9,18.9,21.1,18.7,21.1z M11.9,20.3h6.5V9.5h-6.5V20.3z"/>
</g>
<g>
	<path fill="#666666" d="M16,8.1h-1.9c-0.3,0-0.5-0.2-0.5-0.5c0-0.3,0.2-0.5,0.5-0.5H16c0.3,0,0.5,0.2,0.5,0.5
		C16.5,7.9,16.3,8.1,16,8.1z"/>
</g>
</svg>
