<?xml version="1.0" encoding="utf-8"?>
<!-- Generator: Adobe Illustrator 16.0.0, SVG Export Plug-In . SVG Version: 6.00 Build 0)  -->
<!DOCTYPE svg PUBLIC "-//W3C//DTD SVG 1.1//EN" "http://www.w3.org/Graphics/SVG/1.1/DTD/svg11.dtd">
<svg version="1.1" id="圖層_1" xmlns="http://www.w3.org/2000/svg" xmlns:xlink="http://www.w3.org/1999/xlink" x="0px" y="0px"
	 width="30px" height="30px" viewBox="0 0 30 30" enable-background="new 0 0 30 30" xml:space="preserve">
<g>
	<path fill="#807F80" d="M15.637,14.412c0,0.442-0.358,0.801-0.801,0.801h-2.883v1.438l-2.201-1.438h-3.2
		c-0.442,0-0.801-0.358-0.801-0.801V6.338c0-0.442,0.358-0.801,0.801-0.801h8.284c0.442,0,0.801,0.358,0.801,0.801V14.412z"/>
	<path fill="#807F80" d="M15.552,23.879c0,0.322-0.262,0.584-0.583,0.584H8.938c-0.322,0-0.583-0.262-0.583-0.584v-5.877
		c0-0.322,0.261-0.584,0.583-0.584h6.031c0.321,0,0.583,0.262,0.583,0.584V23.879z"/>
	<path fill="#807F80" d="M24.249,16.836c0,0.322-0.262,0.582-0.583,0.582h-6.031c-0.322,0-0.583-0.26-0.583-0.582v-5.878
		c0-0.321,0.261-0.583,0.583-0.583h6.031c0.321,0,0.583,0.262,0.583,0.583V16.836z"/>
	<path fill="#807F80" d="M22.168,23.174c0,0.229-0.186,0.414-0.414,0.414h-4.288c-0.229,0-0.414-0.186-0.414-0.414v-1.232v-0.857
		v-1.018v-1.072c0-0.227,0.186-0.414,0.414-0.414h4.288c0.229,0,0.414,0.188,0.414,0.414V23.174z"/>
</g>
</svg>
