<?xml version="1.0" encoding="utf-8"?>
<!-- Generator: Adobe Illustrator 21.0.2, SVG Export Plug-In . SVG Version: 6.00 Build 0)  -->
<svg width="30" height="30" version="1.1" id="圖層_1" xmlns="http://www.w3.org/2000/svg" xmlns:xlink="http://www.w3.org/1999/xlink" x="0px" y="0px"
	 viewBox="0 0 30 30" style="enable-background:new 0 0 30 30;" xml:space="preserve">
<style type="text/css">
	.st0{fill:#666666;}
</style>
<g>
	<path class="st0" d="M19.4,10.7h-8.7c-1.1,0-2,0.9-2,2v13.2c0,1.1,0.9,2,2,2h8.7c1.1,0,2-0.9,2-2V12.7
		C21.4,11.6,20.5,10.7,19.4,10.7z M20.4,25.9c0,0.5-0.4,1-1,1h-8.7c-0.5,0-1-0.4-1-1v-2.1h4.1c0.3,0,0.5-0.2,0.5-0.5
		s-0.2-0.5-0.5-0.5H9.6v-3.1h4.1c0.3,0,0.5-0.2,0.5-0.5s-0.2-0.5-0.5-0.5H9.6v-3.1h4.1c0.3,0,0.5-0.2,0.5-0.5s-0.2-0.5-0.5-0.5H9.6
		v-1.7c0-0.5,0.4-1,1-1h8.7c0.5,0,1,0.4,1,1V25.9z"/>
	<path class="st0" d="M10.5,9.6h9c0.7,0,1.3-0.6,1.3-1.3V7.3c0-1.2-1-2.1-2.1-2.1h-1.1c-0.2,0-0.3-0.1-0.3-0.3V4
		c0-1-0.8-1.9-1.9-1.9h-0.7c-1,0-1.9,0.8-1.9,1.9v0.8c0,0.2-0.1,0.3-0.3,0.3h-1.1c-1.2,0-2.1,1-2.1,2.1v1.1
		C9.2,9.1,9.8,9.6,10.5,9.6z M10.2,7.3c0-0.6,0.5-1.1,1.1-1.1h1.1c0.8,0,1.4-0.6,1.4-1.4V4c0-0.5,0.4-0.8,0.8-0.8h0.7
		c0.5,0,0.8,0.4,0.8,0.8v0.8c0,0.8,0.6,1.4,1.4,1.4h1.1c0.6,0,1.1,0.5,1.1,1.1v1.1c0,0.1-0.1,0.2-0.2,0.2h-9c-0.1,0-0.2-0.1-0.2-0.2
		V7.3z"/>
</g>
</svg>
