<?xml version="1.0" encoding="utf-8"?>
<!-- Generator: Adobe Illustrator 15.0.0, SVG Export Plug-In . SVG Version: 6.00 Build 0)  -->
<!DOCTYPE svg PUBLIC "-//W3C//DTD SVG 1.1//EN" "http://www.w3.org/Graphics/SVG/1.1/DTD/svg11.dtd" [
	<!ENTITY ns_extend "http://ns.adobe.com/Extensibility/1.0/">
	<!ENTITY ns_ai "http://ns.adobe.com/AdobeIllustrator/10.0/">
	<!ENTITY ns_graphs "http://ns.adobe.com/Graphs/1.0/">
	<!ENTITY ns_vars "http://ns.adobe.com/Variables/1.0/">
	<!ENTITY ns_imrep "http://ns.adobe.com/ImageReplacement/1.0/">
	<!ENTITY ns_sfw "http://ns.adobe.com/SaveForWeb/1.0/">
	<!ENTITY ns_custom "http://ns.adobe.com/GenericCustomNamespace/1.0/">
	<!ENTITY ns_adobe_xpath "http://ns.adobe.com/XPath/1.0/">
]>
<svg version="1.1" id="圖層_1" xmlns:x="&ns_extend;" xmlns:i="&ns_ai;" xmlns:graph="&ns_graphs;"
	 xmlns="http://www.w3.org/2000/svg" xmlns:xlink="http://www.w3.org/1999/xlink" x="0px" y="0px" width="30px" height="30px"
	 viewBox="0 0 30 30" enable-background="new 0 0 30 30" xml:space="preserve">
<metadata>
	<sfw  xmlns="&ns_sfw;">
		<slices></slices>
		<sliceSourceBounds  y="32.4" x="35.4" width="14.2" height="20.3" bottomLeftOrigin="true"></sliceSourceBounds>
	</sfw>
</metadata>
<circle fill="#666666" cx="15" cy="22.9" r="0.7"/>
<g>
	<path fill="#666666" d="M20.2,25.1H9.8c-1,0-1.9-0.898-1.9-2V6.8c0-1.1,0.8-2,1.9-2h10.4c1,0,1.899,0.9,1.899,2v16.4
		C22.1,24.3,21.2,25.1,20.2,25.1z M9.8,5.9c-0.5,0-0.9,0.4-0.9,1v16.4c0,0.5,0.4,1,0.9,1h10.4c0.5,0,0.899-0.399,0.899-1V6.8
		c0-0.5-0.399-1-0.899-1H9.8V5.9z"/>
</g>
<g>
	<circle fill="#666666" cx="15" cy="23" r="0.8"/>
</g>
<g>
	<path fill="#666666" d="M19.6,21.3h-9.3c-0.2,0-0.4-0.2-0.4-0.399V7.8c0-0.2,0.2-0.4,0.4-0.4h9.3c0.2,0,0.4,0.2,0.4,0.4V21
		C20,21.1,19.8,21.3,19.6,21.3z M10.7,20.5h8.5V8.1h-8.5V20.5z"/>
</g>
</svg>
