<?xml version="1.0" encoding="utf-8"?>
<!-- Generator: Adobe Illustrator 15.0.0, SVG Export Plug-In . SVG Version: 6.00 Build 0)  -->
<!DOCTYPE svg PUBLIC "-//W3C//DTD SVG 1.1//EN" "http://www.w3.org/Graphics/SVG/1.1/DTD/svg11.dtd" [
	<!ENTITY ns_extend "http://ns.adobe.com/Extensibility/1.0/">
	<!ENTITY ns_ai "http://ns.adobe.com/AdobeIllustrator/10.0/">
	<!ENTITY ns_graphs "http://ns.adobe.com/Graphs/1.0/">
	<!ENTITY ns_vars "http://ns.adobe.com/Variables/1.0/">
	<!ENTITY ns_imrep "http://ns.adobe.com/ImageReplacement/1.0/">
	<!ENTITY ns_sfw "http://ns.adobe.com/SaveForWeb/1.0/">
	<!ENTITY ns_custom "http://ns.adobe.com/GenericCustomNamespace/1.0/">
	<!ENTITY ns_adobe_xpath "http://ns.adobe.com/XPath/1.0/">
]>
<svg version="1.1" id="圖層_1" xmlns:x="&ns_extend;" xmlns:i="&ns_ai;" xmlns:graph="&ns_graphs;"
	 xmlns="http://www.w3.org/2000/svg" xmlns:xlink="http://www.w3.org/1999/xlink" x="0px" y="0px" width="30px" height="30px"
	 viewBox="0 0 30 30" enable-background="new 0 0 30 30" xml:space="preserve">
<metadata>
	<sfw  xmlns="&ns_sfw;">
		<slices></slices>
		<sliceSourceBounds  y="34.299" x="33.4" width="18.2" height="15.301" bottomLeftOrigin="true"></sliceSourceBounds>
	</sfw>
</metadata>
<g>
	<path fill="#666666" d="M16.1,20.5v1.2H16.9c0.199,0,0.398,0.1,0.398,0.3S17.1,22.3,16.9,22.3h-3.8c-0.2,0-0.4-0.1-0.4-0.3
		s0.2-0.3,0.4-0.3h0.7v-1.2H16.1 M16.9,19.8H16.1H13.7H13v0.8V21c-0.6,0-1.1,0.5-1.1,1.1c0,0.602,0.5,1.102,1.1,1.102h3.8
		c0.601,0,1.101-0.5,1.101-1.102c0-0.6-0.399-1.1-1-1.1l0,0v-0.5V19.8L16.9,19.8z"/>
</g>
<g>
	<path fill="#666666" d="M22.3,20.5H7.7c-1,0-1.8-0.7-1.8-1.6V9.5c0-0.9,0.8-1.6,1.8-1.6h14.6c1,0,1.8,0.7,1.8,1.6v9.4
		C24.1,19.8,23.3,20.5,22.3,20.5z M7.7,8.9c-0.4,0-0.8,0.3-0.8,0.6v9.4c0,0.398,0.3,0.6,0.8,0.6h14.6c0.4,0,0.8-0.3,0.8-0.6V9.5
		c0-0.4-0.3-0.6-0.8-0.6H7.7z"/>
</g>
<g>
	<path fill="#666666" d="M22.1,17.8H7.9v-7.3H22L22.1,17.8L22.1,17.8z M8.7,17.1h12.6v-5.8H8.7V17.1z"/>
</g>
</svg>
