<?xml version="1.0" encoding="utf-8"?>
<!-- Generator: Adobe Illustrator 15.0.0, SVG Export Plug-In . SVG Version: 6.00 Build 0)  -->
<!DOCTYPE svg PUBLIC "-//W3C//DTD SVG 1.1//EN" "http://www.w3.org/Graphics/SVG/1.1/DTD/svg11.dtd" [
	<!ENTITY ns_extend "http://ns.adobe.com/Extensibility/1.0/">
	<!ENTITY ns_ai "http://ns.adobe.com/AdobeIllustrator/10.0/">
	<!ENTITY ns_graphs "http://ns.adobe.com/Graphs/1.0/">
	<!ENTITY ns_vars "http://ns.adobe.com/Variables/1.0/">
	<!ENTITY ns_imrep "http://ns.adobe.com/ImageReplacement/1.0/">
	<!ENTITY ns_sfw "http://ns.adobe.com/SaveForWeb/1.0/">
	<!ENTITY ns_custom "http://ns.adobe.com/GenericCustomNamespace/1.0/">
	<!ENTITY ns_adobe_xpath "http://ns.adobe.com/XPath/1.0/">
]>
<svg version="1.1" id="圖層_1" xmlns:x="&ns_extend;" xmlns:i="&ns_ai;" xmlns:graph="&ns_graphs;"
	 xmlns="http://www.w3.org/2000/svg" xmlns:xlink="http://www.w3.org/1999/xlink" x="0px" y="0px" width="30px" height="30px"
	 viewBox="0 0 30 30" enable-background="new 0 0 30 30" xml:space="preserve">
<metadata>
	<sfw  xmlns="&ns_sfw;">
		<slices></slices>
		<sliceSourceBounds  y="35.2" x="33.4" width="18.031" height="15" bottomLeftOrigin="true"></sliceSourceBounds>
	</sfw>
</metadata>
<g>
	<path fill="#666666" d="M22.4,22.3H7.6c-1,0-1.7-0.8-1.7-1.7V11c0-1,0.8-1.7,1.7-1.7H8c0.2-0.4,0.6-0.7,1.1-0.7h1.3
		c0.5,0,0.9,0.3,1.1,0.7h1.7V9c0-1,0.8-1.7,1.7-1.7h2.6c1,0,1.7,0.8,1.7,1.7v0.2h3c1,0,1.7,0.8,1.7,1.7v9.6
		C24.1,21.5,23.3,22.3,22.4,22.3z M7.6,10.2c-0.4,0-0.7,0.3-0.7,0.7v9.6c0,0.4,0.3,0.7,0.7,0.7h14.7c0.4,0,0.7-0.3,0.7-0.7v-9.6
		c0-0.4-0.3-0.7-0.7-0.7h-4V9c0-0.4-0.3-0.7-0.7-0.7H15c-0.4,0-0.7,0.3-0.7,0.7v1.2h-3.6V9.7c0-0.1-0.1-0.2-0.2-0.2H9.2
		C9,9.5,8.9,9.6,8.9,9.7v0.5H7.6z"/>
</g>
<g>
	<path fill="#666666" d="M16.3,20.1c-2.4,0-4.3-1.898-4.3-4.3c0-2.4,1.9-4.3,4.3-4.3c2.4,0,4.3,1.9,4.3,4.3
		C20.6,18.2,18.7,20.1,16.3,20.1z M16.3,12.3c-1.9,0-3.5,1.6-3.5,3.5c0,1.9,1.6,3.5,3.5,3.5c1.9,0,3.5-1.6,3.5-3.5
		C19.9,13.9,18.3,12.3,16.3,12.3z"/>
</g>
<g>
	<path fill="#666666" d="M18.3,15.8c0,1.101-0.899,1.9-1.899,1.9c-1,0-1.899-0.9-1.899-1.9c0-1.1,0.9-1.9,1.899-1.9
		c0.399,0,0.801,0.1,1.101,0.3C18,14.6,18.3,15.2,18.3,15.8z"/>
</g>
<g>
	<rect x="8.2" y="11.9" fill="#666666" width="3.4" height="1.2"/>
</g>
</svg>
