<?xml version="1.0" encoding="utf-8"?>
<!-- Generator: Adobe Illustrator 15.0.0, SVG Export Plug-In . SVG Version: 6.00 Build 0)  -->
<!DOCTYPE svg PUBLIC "-//W3C//DTD SVG 1.1//EN" "http://www.w3.org/Graphics/SVG/1.1/DTD/svg11.dtd" [
	<!ENTITY ns_extend "http://ns.adobe.com/Extensibility/1.0/">
	<!ENTITY ns_ai "http://ns.adobe.com/AdobeIllustrator/10.0/">
	<!ENTITY ns_graphs "http://ns.adobe.com/Graphs/1.0/">
	<!ENTITY ns_vars "http://ns.adobe.com/Variables/1.0/">
	<!ENTITY ns_imrep "http://ns.adobe.com/ImageReplacement/1.0/">
	<!ENTITY ns_sfw "http://ns.adobe.com/SaveForWeb/1.0/">
	<!ENTITY ns_custom "http://ns.adobe.com/GenericCustomNamespace/1.0/">
	<!ENTITY ns_adobe_xpath "http://ns.adobe.com/XPath/1.0/">
]>
<svg version="1.1" id="圖層_1" xmlns:x="&ns_extend;" xmlns:i="&ns_ai;" xmlns:graph="&ns_graphs;"
	 xmlns="http://www.w3.org/2000/svg" xmlns:xlink="http://www.w3.org/1999/xlink" x="0px" y="0px" width="30px" height="30px"
	 viewBox="0 0 30 30" enable-background="new 0 0 30 30" xml:space="preserve">
<metadata>
	<sfw  xmlns="&ns_sfw;">
		<slices></slices>
		<sliceSourceBounds  y="34.9" x="33.4" width="18.3" height="13.899" bottomLeftOrigin="true"></sliceSourceBounds>
	</sfw>
</metadata>
<g>
	<path fill="#666666" d="M12.1,15.2h-1v-1c0-0.2-0.2-0.4-0.4-0.4c-0.2,0-0.4,0.2-0.4,0.4v1h-1c-0.2,0-0.4,0.2-0.4,0.399
		c0,0.199,0.2,0.399,0.4,0.399h1v1c0,0.2,0.2,0.399,0.4,0.399c0.2,0,0.4-0.199,0.4-0.399v-1h1c0.2,0,0.4-0.2,0.4-0.399
		C12.5,15.4,12.3,15.2,12.1,15.2z"/>
</g>
<g>
	<path fill="#666666" d="M10.8,18.4C9.2,18.4,8,17.1,8,15.6c0-1.6,1.3-2.8,2.8-2.8s2.8,1.3,2.8,2.8C13.6,17.2,12.4,18.4,10.8,18.4z
		 M10.8,13.5c-1.2,0-2.1,0.9-2.1,2.1c0,1.2,0.9,2.102,2.1,2.102c1.2,0,2.1-0.9,2.1-2.102C12.9,14.4,11.9,13.5,10.8,13.5z"/>
</g>
<g>
	<circle fill="#666666" cx="19.8" cy="15" r="0.6"/>
</g>
<g>
	<circle fill="#666666" cx="19.8" cy="18" r="0.6"/>
</g>
<g>
	<circle fill="#666666" cx="18.1" cy="16.5" r="0.6"/>
</g>
<g>
	<circle fill="#666666" cx="21.5" cy="16.5" r="0.6"/>
</g>
<g>
	<path fill="#666666" d="M20.7,22.6L20.7,22.6h-0.2c-1.8-0.1-2.6-1-2.9-1.5H13c-0.3,0.5-1.1,1.5-2.7,1.5c-3.1,0-4.4-2.199-4.4-3.398
		v-7.4c0-1.1,0.8-1.9,1.7-1.9h1V9.8c0-0.6,0.5-1.1,1-1.1h2c0.6,0,1,0.5,1,1.1v0.1h4.5V9.8c0-0.6,0.5-1.1,1-1.1h2
		c0.602,0,1,0.5,1,1.1v0.1h1.4c0.9,0,1.7,0.9,1.7,1.9v7.4c0,0.6-0.4,1.399-0.9,2.1C22.7,22.1,21.7,22.6,20.7,22.6z M12.7,20.1h5.6
		l0.101,0.4c0,0,0.301,1,2.199,1.1H20.7l0,0c1,0,1.7-0.5,2-1c0.5-0.6,0.7-1.199,0.7-1.398v-7.4c0-0.5-0.301-0.9-0.7-0.9h-2.5V9.6h-2
		v1.2h-6.6V9.6h-2v0.2v1h-2c-0.4,0-0.7,0.4-0.7,0.9V19.1c0,0.4,0.6,2.4,3.4,2.4c1.5,0,1.9-1.1,1.9-1.1l0.1-0.301H12.7L12.7,20.1z"/>
</g>
</svg>
