<?xml version="1.0" encoding="utf-8"?>
<!-- Generator: Adobe Illustrator 15.0.0, SVG Export Plug-In . SVG Version: 6.00 Build 0)  -->
<!DOCTYPE svg PUBLIC "-//W3C//DTD SVG 1.1//EN" "http://www.w3.org/Graphics/SVG/1.1/DTD/svg11.dtd" [
	<!ENTITY ns_extend "http://ns.adobe.com/Extensibility/1.0/">
	<!ENTITY ns_ai "http://ns.adobe.com/AdobeIllustrator/10.0/">
	<!ENTITY ns_graphs "http://ns.adobe.com/Graphs/1.0/">
	<!ENTITY ns_vars "http://ns.adobe.com/Variables/1.0/">
	<!ENTITY ns_imrep "http://ns.adobe.com/ImageReplacement/1.0/">
	<!ENTITY ns_sfw "http://ns.adobe.com/SaveForWeb/1.0/">
	<!ENTITY ns_custom "http://ns.adobe.com/GenericCustomNamespace/1.0/">
	<!ENTITY ns_adobe_xpath "http://ns.adobe.com/XPath/1.0/">
]>
<svg version="1.1" id="圖層_1" xmlns:x="&ns_extend;" xmlns:i="&ns_ai;" xmlns:graph="&ns_graphs;"
	 xmlns="http://www.w3.org/2000/svg" xmlns:xlink="http://www.w3.org/1999/xlink" x="0px" y="0px" width="30px" height="30px"
	 viewBox="0 0 30 30" enable-background="new 0 0 30 30" xml:space="preserve">
<metadata>
	<sfw  xmlns="&ns_sfw;">
		<slices></slices>
		<sliceSourceBounds  y="34.6" x="34.3" width="16.2" height="17.9" bottomLeftOrigin="true"></sliceSourceBounds>
	</sfw>
</metadata>
<g>
	<path fill="#666666" d="M21.5,10.3L21.5,10.3L21.5,10.3C21.4,10,21.2,9.9,21,9.9h-2.7V8.4C18.3,6.5,16.8,5,15,5s-3.3,1.5-3.3,3.3
		v1.5H9c-0.2,0-0.4,0.1-0.5,0.3l0,0L6.8,22.3V22.4l0,0c0,0.3,0.3,0.5,0.5,0.5h15.2c0.3,0,0.5-0.2,0.5-0.5l0,0L21.5,10.3z M8,21.9
		L9.5,11h2.2v1.5c-0.2,0.2-0.4,0.5-0.4,0.8c0,0.5,0.4,0.9,0.9,0.9s0.9-0.4,0.9-0.9c0-0.3-0.2-0.6-0.4-0.8V11h4.5v1.5
		c-0.2,0.2-0.4,0.5-0.4,0.8c0,0.5,0.4,0.9,0.9,0.9s0.899-0.4,0.899-0.9c0-0.3-0.199-0.6-0.399-0.8V11h2.2L22,21.9H8z M15,6.1
		c1.2,0,2.3,1,2.3,2.3v1.5h-4.5V8.4C12.7,7.1,13.7,6.1,15,6.1z"/>
</g>
</svg>
