<?xml version="1.0" encoding="utf-8"?>
<!-- Generator: Adobe Illustrator 16.0.0, SVG Export Plug-In . SVG Version: 6.00 Build 0)  -->
<!DOCTYPE svg PUBLIC "-//W3C//DTD SVG 1.1//EN" "http://www.w3.org/Graphics/SVG/1.1/DTD/svg11.dtd">
<svg version="1.1" id="Layer_1" xmlns="http://www.w3.org/2000/svg" xmlns:xlink="http://www.w3.org/1999/xlink" x="0px" y="0px"
	 width="30px" height="30px" viewBox="0 0 30 30" enable-background="new 0 0 30 30" xml:space="preserve">
<g>
	<g>
		<g>
			<path fill="#FFFFFF" d="M15,29.083C7.234,29.083,0.917,22.766,0.917,15S7.234,0.917,15,0.917S29.083,7.234,29.083,15
				S22.766,29.083,15,29.083z M15,1.917C7.786,1.917,1.917,7.786,1.917,15S7.786,28.083,15,28.083S28.083,22.214,28.083,15
				S22.214,1.917,15,1.917z"/>
		</g>
	</g>
	<polygon fill-rule="evenodd" clip-rule="evenodd" fill="#FFFFFF" points="25.028,6.477 21.29,10.119 10.29,10.119 10.29,19.375 
		19.743,19.375 19.743,16.451 16.784,16.451 14.708,14.746 17.097,12.926 24.456,12.926 24.456,19.375 20.536,23.523 8.663,23.523 
		4.972,19.74 4.972,9.752 8.136,6.477 	"/>
</g>
</svg>
