<svg xmlns="http://www.w3.org/2000/svg" id="Group_38" data-name="Group 38" viewBox="0 0 100.635 34.216">
    <defs>
        <style>
            .cls-1{fill:#fff}
        </style>
    </defs>
    <g id="Group_27" data-name="Group 27" transform="translate(.929 .464)">
        <path id="Path_56" d="M.6 66.032c2.787-4.645 17.031-28.023 17.185-28.178V37.7l-4.954.31c2.168-1.393 6.657-4.8 7.122-5.109l3.871 1.393L26.455 49l6.813-11.92-4.645 1.239 6.348-3.719 2.787 1.858c0 .155-.31.464-.929 1.7-2.168 3.871-7.122 12.7-7.432 13.315l-6.038 3.257L21.5 43.428l-1.239-.464L10.2 59.375l5.883-2.013z" class="cls-1" data-name="Path 56" transform="translate(-.6 -32.9)"/>
        <path id="Path_57" d="M21.571 57.531c-1.393-.774-3.561-1.858-3.871-2.013.774-1.239 6.812-11.767 6.967-12.231l5.264-2.787 5.269 2.322c-4.954 8.825-5.728 10.064-5.883 10.218-.47.31-7.127 4.026-7.746 4.491zm6.193-13.005l-5.109 9.289 1.393.619.929-1.548c.619-.929 1.239-2.168 2.013-3.561 1.393-2.477 2.942-5.109 2.942-5.109l-.619-.464z" class="cls-1" data-name="Path 57" transform="translate(8.775 -28.733)"/>
        <path id="Path_58" d="M41.2 53.224l5.883-10.373 4.49-2.942 5.109 2.477c-4.025 7.9-4.025 7.9-4.025 8.051l1.239.774 1.858-.929 4.335-8.515-1.239-.929 1.393-.929 4.49-.619c-.619 1.239-4.954 10.063-5.109 10.218l1.084.774 1.7-.619 4.645-9.135-1.546-1.238 2.322-.31.619-1.239c.31-.155 3.1-2.013 4.49-2.942h.774l-1.548 3.406 5.574-.774.31.155-6.657 2.322-4.645 8.825 8.206-1.548.31.31c-1.393.619-9.754 4.49-10.528 4.8l-2.477-1.239a34.644 34.644 0 0 0-4.8 2.477l-2.168-1.083-4.18 2.013-2.009-.929c-.155 0-3.406 1.548-4.025 1.858zm8.67-9.135l-4.49 7.9 1.393.619.31-.464.619-1.084c.464-.774 1.084-2.013 1.7-3.1l2.477-4.49-.619-.464z" class="cls-1" data-name="Path 58" transform="translate(21.658 -31.858)"/>
        <path id="Path_59" d="M27 54.831l7.432-13.005-3.406.619 5.883-3.406 1.084.464 1.548.619-7.122 12.386 1.858.774 6.038-9.909 2.322-1.239 1.239 1.084-3.716 6.658 2.013.929 6.193-10.992-.155-.155-2.477.774 4.49-2.632 3.1 1.393L44.5 54.676l-3.1-1.393-10.375 3.56z" class="cls-1" data-name="Path 59" transform="translate(13.873 -30.214)"/>
        <path id="Path_60" d="M54.6 38.419c1.239-1.7 2.013-2.942 1.548-3.251 0-.155-.155-.31-.155-.464-.155-.31-.155-.619-.31-.929h.155c1.7-.31 3.406-.464 5.574-.774h.155v1.084a12.25 12.25 0 0 1-2.013 1.239 8.987 8.987 0 0 0-1.854 1.237c-.464.31-.929.774-1.393 1.084a3.377 3.377 0 0 0-.774.619l-.31-.155c-.155.155-.464.31-.619.464z" class="cls-1" data-name="Path 60" transform="translate(29.004 -32.845)"/>
    </g>
    <g id="Group_28" data-name="Group 28">
        <path id="Path_61" d="M0 65.732c2.787-4.645 17.031-28.023 17.185-28.178V37.4l-4.954.31c2.168-1.393 6.657-4.8 7.122-5.109l3.871 1.393L25.855 48.7l6.813-11.92-4.645 1.239 6.348-3.719 2.787 1.858c0 .155-.31.464-.929 1.7-2.168 3.871-7.122 12.7-7.432 13.315l-6.038 3.257L20.9 43.128l-1.239-.464L9.6 59.075l5.883-2.013z" data-name="Path 61" transform="translate(0 -32.6)"/>
        <path id="Path_62" d="M20.971 57.231c-1.393-.774-3.561-1.858-3.871-2.013.774-1.239 6.812-11.767 6.967-12.231l5.264-2.787 5.269 2.322c-4.954 8.825-5.728 10.064-5.883 10.218-.47.31-7.127 4.026-7.746 4.491zm6.193-13.005l-5.109 9.289 1.393.619.929-1.548c.619-.929 1.239-2.168 2.013-3.561 1.393-2.477 2.942-5.109 2.942-5.109l-.619-.464z" data-name="Path 62" transform="translate(9.375 -28.433)"/>
        <path id="Path_63" d="M40.6 52.869L46.483 42.5l4.49-2.942 5.109 2.477c-4.025 8.051-4.025 8.206-4.025 8.206l1.239.774 1.858-.929 4.335-8.515-1.239-.929 1.393-.929 4.49-.619c-.619 1.239-4.954 10.064-5.109 10.218l1.084.774 1.7-.619 4.645-9.135-1.546-1.242 2.322-.31.619-1.239c.31-.155 3.1-2.013 4.49-2.942h.774l-1.858 3.561 5.574-.774.31.155-6.657 2.322-4.645 8.825 8.206-1.548.31.31c-1.393.619-9.754 4.49-10.528 4.8l-2.477-1.239a34.645 34.645 0 0 0-4.8 2.477L54.379 52.4 50.2 54.417l-2.013-.929c-.155 0-3.406 1.548-4.025 1.858zm8.67-9.135l-4.49 7.9 1.393.619.31-.464.617-1.089c.464-.774 1.084-2.013 1.7-3.1l2.477-4.49-.619-.464z" data-name="Path 63" transform="translate(22.258 -31.504)"/>
        <path id="Path_64" d="M26.4 54.531l7.586-13.005-3.561.774 5.883-3.561 1.084.464 1.548.774-7.121 12.231 1.858.774 6.038-9.909 2.477-1.239 1.084 1.084-3.716 6.658 2.013.929 6.193-10.992-.155-.155-2.477.774 4.49-2.632 3.1 1.393L43.9 54.376l-3.1-1.393-10.22 3.56z" data-name="Path 64" transform="translate(14.473 -29.914)"/>
        <path id="Path_65" d="M54 38.119c1.239-1.7 2.013-2.942 1.548-3.251 0-.155-.155-.31-.155-.464-.155-.31-.155-.619-.31-.929h.155c1.7-.31 3.406-.464 5.574-.774h.155v1.084a12.249 12.249 0 0 1-2.013 1.239 8.987 8.987 0 0 0-1.854 1.237c-.464.31-.929.774-1.393 1.084a3.377 3.377 0 0 0-.774.619l-.31-.155c-.155.155-.464.31-.619.464z" data-name="Path 65" transform="translate(29.604 -32.545)"/>
    </g>
    <g id="Group_29" data-name="Group 29" transform="translate(80.353 26.784)">
        <path id="Path_66" d="M52.519 52.9a.621.621 0 1 1 0 1.239h-.31a.152.152 0 0 1-.155-.155l-.155-.155v-.31a.569.569 0 0 1 .155-.464.678.678 0 0 1 .465-.155z" data-name="Path 66" transform="translate(-51.9 -48.255)"/>
        <path id="Path_67" d="M55.622 51.555v.619a1.4 1.4 0 0 0-.774-.155h-.31c-.155 0-.155 0-.155.155l-.155.155v.155c0 .155.31.31.774.619.155.155.31.155.464.31l.31.31c.155.155.155.31.155.619a.851.851 0 0 1-.464.774 2.238 2.238 0 0 1-1.084.31 1.964 1.964 0 0 1-.929-.155v-.619a1.683 1.683 0 0 0 .774.155c.464 0 .774-.155.774-.464 0-.155 0-.155-.155-.31l-.155-.155c-.155 0-.155-.155-.31-.155a2.381 2.381 0 0 1-.929-.619c-.155-.155-.155-.31-.155-.619s.155-.464.464-.774a2.238 2.238 0 0 1 1.084-.31 1.683 1.683 0 0 1 .776.154z" data-name="Path 67" transform="translate(-51.132 -49.078)"/>
        <path id="Path_68" d="M55.555 49.9h1.084v2.787a1.405 1.405 0 0 1 1.084-.464 1.309 1.309 0 0 1 .929.31c.155.155.155.31.155.774v2.632h-1.085v-2.478c0-.31 0-.464-.155-.464a.569.569 0 0 0-.464-.155h-.31c-.155 0-.155 0-.155.155a.541.541 0 0 0-.155.31v2.632H55.4V49.9z" data-name="Path 68" transform="translate(-49.981 -49.9)"/>
        <path id="Path_69" d="M61.706 53.258c0 1.239-.619 1.858-1.7 1.858-1.239 0-1.7-.619-1.7-1.858S58.919 51.4 60 51.4a1.16 1.16 0 0 1 .774.155 1.174 1.174 0 0 1 .619.31.8.8 0 0 1 .31.619zm-1.084 0c0-.464 0-.774-.155-.929s-.31-.31-.464-.31c-.31 0-.464.155-.464.31-.155.155-.155.464-.155.929s0 .774.155.929.31.31.464.31c.31 0 .464-.155.464-.31.155-.155.155-.465.155-.929z" data-name="Path 69" transform="translate(-48.391 -49.078)"/>
        <path id="Path_70" d="M61.1 56.564v-5.109h1.084v.464l.464-.464c.155 0 .31-.155.619-.155a1.406 1.406 0 0 1 1.084.464 3.29 3.29 0 0 1 0 2.787 1.205 1.205 0 0 1-1.084.464.931.931 0 0 1-.619-.155l-.155-.155-.155-.155v1.858H61.1zm2.322-3.251c0-.464 0-.774-.155-.929s-.31-.31-.464-.31c-.31 0-.464.155-.464.31-.155.155-.155.464-.155.929s0 .774.155.929.31.31.464.31c.31 0 .464-.155.464-.31.155-.155.155-.465.155-.929z" data-name="Path 70" transform="translate(-46.856 -49.132)"/>
    </g>
</svg>
