<svg xmlns="http://www.w3.org/2000/svg" id="Group_41" data-name="Group 41" viewBox="0 0 239 79.617">
    <defs>
        <style>
            .cls-1{fill:#fff}
        </style>
    </defs>
    <path id="Path_112" d="M0 79.57c6.5-11.078 40.769-66.914 41.064-67.5l.148-.3-11.965.591C34.565 9.111 45.053.986 46.234.1l9.158 3.545 6.352 35.3 16.4-28.656L67.21 13.1l15.214-9.012 6.647 4.727c-.148.3-.739 1.182-2.363 4.136-5.023 9.158-16.987 30.429-17.726 31.758l-14.476 7.977-4.431-27.179-2.954-1.034-24.078 38.848 13.885-4.727z" class="cls-1" data-name="Path 112" transform="translate(0 .048)"/>
    <path id="Path_113" d="M52.106 60.017c-3.4-1.773-8.42-4.284-9.306-4.727 1.773-3.1 16.1-28.066 16.839-29.395L72.047 19.1 84.6 24.713C72.638 45.836 70.866 48.79 70.718 49.233c-1.034.739-16.84 9.75-18.612 10.784zM67.025 28.7l-12.26 22.158 3.4 1.625h.148c.148 0 .148 0 2.216-3.841 1.329-2.216 2.954-5.318 4.727-8.42 3.4-6.056 6.943-12.112 6.943-12.112v-.148l-1.629-1.181z" class="cls-1" data-name="Path 113" transform="translate(20.421 9.113)"/>
    <path id="Path_114" d="M101.9 49.257l14.033-24.816 10.635-6.941 12.26 6.056-9.749 19.054v.148l3.1 1.92 4.431-2.216L147.1 21.93l-2.807-2.068 3.545-2.363 10.783-1.625c-1.477 3.1-11.965 24.077-12.112 24.373v.148l2.659 1.773 4.136-1.625 11.226-22.01-3.693-2.954 5.613-.886 1.477-2.954c.591-.443 7.386-4.875 10.931-7.238h1.625l-4.431 8.567 13.442-1.92.886.443-15.953 5.465L163.2 38.031l19.5-3.841.739.591c-3.4 1.625-23.191 10.635-25.111 11.669l-6.056-3.1h-.148c-9.158 4.431-11.226 5.465-11.669 5.761l-5.318-2.659-9.9 4.875-4.727-2.216h-.148c-.3.148-8.272 3.841-9.454 4.579zM122.728 27.4l-10.784 18.9 3.545 1.477h.148l.591-1.034 1.329-2.363c1.182-2.068 2.659-4.727 4.136-7.386l6.056-10.783-1.625-1.034z" class="cls-1" data-name="Path 114" transform="translate(48.62 2.147)"/>
    <path id="Path_115" d="M66.2 53.169l18.021-31.315-8.272 1.773 14.033-8.272 2.511 1.182 3.693 1.625-16.84 29.246 4.431 2.216 14.328-23.93 5.761-2.954 2.807 2.659-8.862 15.657 4.875 2.363 14.624-26.293-.3-.3-5.91 1.774 10.635-6.2 7.533 3.1L108 52.726l-7.238-3.25L76.1 58.043z" class="cls-1" data-name="Path 115" transform="translate(31.586 5.916)"/>
    <path id="Path_116" d="M135.521 13.59c2.954-4.136 4.727-6.795 3.545-7.829a3.476 3.476 0 0 1-.3-1.182c-.148-.739-.443-1.477-.591-2.216v-.147a1.143 1.143 0 0 0 .443-.148c3.993-.591 8.129-1.182 13.299-2.068h.443a3.252 3.252 0 0 0 .148 1.182 4.09 4.09 0 0 0 .148 1.329.457.457 0 0 1-.148.3c-.591.443-2.659 1.625-4.727 2.954s-3.988 2.511-4.579 2.807c-1.182.886-2.363 1.625-3.545 2.511h-.148a16.721 16.721 0 0 0-1.92 1.477l-.443.3c-.591.443-1.034.739-1.625 1.182-.148-.305 0-.305 0-.452z" class="cls-1" data-name="Path 116" transform="translate(64.63)"/>
</svg>
